{"title":"Devil.2010.PPVRip.H264.Feel-Free","uid":6001358,"size":674381474,"categoryP":"video","categoryS":"movies","magnet":"?xt=urn:btih:399a7870b6b9fbc55867c8c910d1d891a63d9696&amp;dn=Devil.2010.PPVRip.H264.Feel-Free&amp;tr=udp%3A%2F%2Ftracker.openbittorrent.com%3A80&amp;tr=udp%3A%2F%2Fopen.demonii.com%3A1337&amp;tr=udp%3A%2F%2Ftracker.coppersurfer.tk%3A6969&amp;tr=udp%3A%2F%2Fexodus.desync.com%3A6969","seeders":0,"leechers":1,"uploader":"hiest","files":-1,"time":1291192487,"description":"Genre:Horror | Mystery | Thriller\nLanguage:English\nIMDb:http://www.imdb.com/title/tt1314655/\nSource:Devil 2010 PPVRipThanks\nSubtitles:Romana\n\n\nGeneral\nComplete name :Devil.2010.PPVRip.H264.Feel-Free\nFormat : MPEG-4\nFormat profile : Base Media\nCodec ID : isom\nFile size : 642 MiB\nDuration : 1h 20mn\nOverall bit rate : 1 118 Kbps\nVideo #2\nCodec ID : avc1\nCodec ID/Info : Advanced Video Coding\nDuration : 1h 20mn\nBit rate mode : Variable\nBit rate : 950 Kbps\nWidth : 720 pixels\nHeight : 384 pixels\nDisplay aspect ratio : 1.875\nFrame rate mode : Constant\nFrame rate : 29.970 fps\nOriginal frame rate : 29.000 fps\nResolution : 24 bits\nColorimetry : 4:2:0\nScan type : Progressive\nBits/(Pixel*Frame) : 0.115\nStream size : 545 MiB (85%)\nAudio #1\nID : 1\nFormat : AAC\nFormat/Info : Advanced Audio Codec\nFormat version : Version 4\nFormat profile : LC\nFormat settings, SBR : No\nCodec ID : 40\nDuration : 1h 20mn\nBit rate mode : Constant\nBit rate : 160 Kbps\nChannel(s) : 2 channels\nChannel positions : L R\nSampling rate : 48.0 KHz\nResolution : 16 bits\nStream size : 91.8 MiB (14%)\n\nPlot\nA group of people trapped in an elevator realize that the devil is among them\n\n\n\n================================== &lt;a href=&quot;\nhttp://thepiratebay.se/user/hiest&quot; rel=&quot;nofollow&quot; target=&quot;_NEW&quot;&gt;\nhttp://thepiratebay.se/user/hiest&lt;/a&gt;\n==================================","torrent":{"xt":"urn:btih:399a7870b6b9fbc55867c8c910d1d891a63d9696","amp;dn":"Devil.2010.PPVRip.H264.Feel-Free","amp;tr":["udp%3A%2F%2Ftracker.openbittorrent.com%3A80","udp%3A%2F%2Fopen.demonii.com%3A1337","udp%3A%2F%2Ftracker.coppersurfer.tk%3A6969","udp%3A%2F%2Fexodus.desync.com%3A6969"],"infoHash":"399a7870b6b9fbc55867c8c910d1d891a63d9696","infoHashBuffer":{"type":"Buffer","data":[57,154,120,112,182,185,251,197,88,103,200,201,16,209,216,145,166,61,150,150]},"announce":[],"urlList":[]}}